<svg cache-id="e8b0b073f2ae484fab443816b005022b" id="eriKP5ERITk1" xmlns="http://www.w3.org/2000/svg" xmlns:xlink="http://www.w3.org/1999/xlink" viewBox="0 0 62 33" shape-rendering="geometricPrecision" text-rendering="geometricPrecision"><path d="M61.0882,15.6372c-12.1264,0-20.9706-14.833455-21.0617-15.01546-.2736-.455013-.8206-.546017-1.2765-.364012-.4559.273008-.5471.819022-.3647,1.274042.2735.54601,6.0176,10.01033,14.8618,14.10543h-52.335336c-.547059,0-.911765.364-.911765.91s.364706.91.911765.91h52.335336c-8.8442,4.0951-14.5883,13.5594-14.8618,14.1054-.1824.455-.0912,1.0011.3647,1.2741.4559.182,1.0029.091,1.2765-.364.0911-.182,8.9353-15.0155,21.0617-15.0155.5471,0,.9118-.364.9118-.91s-.3647-.91-.9118-.91Z" fill="#f2f2f2"/></svg>
