<svg id="evgYdWCPajX1" xmlns="http://www.w3.org/2000/svg" xmlns:xlink="http://www.w3.org/1999/xlink" viewBox="0 0 41 22" shape-rendering="geometricPrecision" text-rendering="geometricPrecision"><path d="M0.871437,12.021c7.823533,0,13.529363,9.5699,13.588263,9.6874.1764.2935.5294.3522.8235.2348.2941-.1761.3529-.5284.2353-.8219-.1765-.3523-3.8824-6.4583-9.58824-9.1003h33.76474c.3529,0,.5882-.2349.5882-.5871s-.2353-.5871-.5882-.5871h-33.76474C11.6361,8.20475,15.342,2.09877,15.5185,1.7465c.1176-.29355.0588-.64582-.2353-.821957-.2941-.117423-.6471-.058712-.8235.234847-.0589.11742-5.76473,9.68741-13.588263,9.68741-.35294,0-.588234.2348-.588234.5871s.235294.5871.588234.5871Z" fill="#f2f2f2"/></svg>
